<mxfile host="app.diagrams.net" modified="2023-09-26T15:04:17.744Z" agent="Mozilla/5.0 (X11; Linux x86_64; rv:109.0) Gecko/20100101 Firefox/114.0" version="21.8.0" etag="qUav33vEGoacu33-8WVb" type="github">
  <diagram name="PÃ¡gina-1" id="92OFy1z5IRNi9z9aULws">
    <mxGraphModel>
      <root>
        <mxCell id="0" />
        <mxCell id="1" parent="0" />
      </root>
    </mxGraphModel>
  </diagram>
</mxfile>
